<svg width="512" height="261" viewBox="0 0 512 261" fill="none" xmlns="http://www.w3.org/2000/svg">
<g clip-path="url(#clip0_7929_681)">
<path d="M161.389 28.58H196.329C210.249 28.58 227.789 37.19 226.519 61.66C225.239 86.66 209.419 103.57 183.049 103.57H145.549L161.379 28.58H161.389ZM173.079 84.34H184.329C199.639 84.34 203.139 68.7 203.139 61.77C203.139 50.53 197.299 47.81 189.449 47.81H180.839L173.079 84.34Z" fill="white"/>
<path d="M232.189 65.5599C235.469 51.0599 246.839 47.7 260.339 47.7C270.329 47.7 287.109 48.96 287.109 62.2C287.109 70.7 280.419 95.17 280.419 98.75C280.829 102.95 280.419 101.05 281.259 103.58H260.659C260.119 101.89 259.789 100.12 259.919 98.3399H259.699C255.979 102.74 248.849 104.94 242.709 104.94C233.249 104.94 224.859 100.85 224.859 90.4499C224.859 76.0599 235.689 72.1799 251.529 71.0199C257.469 70.5999 266.929 71.45 266.929 64.72C266.929 60.94 263.519 59.99 260.339 59.99C256.089 59.99 253.119 61.4599 251.939 65.5599H232.199H232.189ZM252.579 92.65C259.699 92.65 262.569 87.51 263.839 79.41C260.439 81.1 256.509 81.52 252.689 81.83C249.189 82.14 245.879 83.93 245.879 87.93C245.879 91.71 249.179 92.65 252.579 92.65Z" fill="white"/>
<path d="M303.839 28.58H324.879L309.139 103.57H288.109L303.839 28.58Z" fill="white"/>
<path d="M329.25 49.06H349.66L348.16 56.2099H348.37C352.62 51.0599 358.68 47.7 365.69 47.7C372.7 47.7 379.17 50.01 380.58 56.7299C385.13 51.0599 391.31 47.7 398.63 47.7C409.36 47.7 416.26 52.64 416.26 63.88C416.26 66.4 415.41 70.0699 414.99 72.4899L408.29 103.58H387.26L392.89 77.54C393.12 76.49 394.17 71.1299 394.17 69.5599C394.17 66.0899 392.14 64.3099 388.74 64.3099C384.59 64.3099 381.64 66.62 380.78 70.61L373.56 103.59H352.51L358.89 74.4C359.21 73.03 359.74 70.82 359.74 69.36C359.74 65.88 357.82 64.32 354.43 64.32C349.21 64.32 346.57 67.68 345.62 72.41L338.81 103.6H317.77L329.24 49.09L329.25 49.06Z" fill="white"/>
<path d="M428.618 49.06H449.648L438.168 103.57H417.148L428.608 49.06H428.618ZM450.828 43.19H429.778L432.868 28.58H453.898L450.828 43.19Z" fill="white"/>
<path d="M457.059 65.5599C460.349 51.0599 471.719 47.7 485.219 47.7C495.209 47.7 511.999 48.96 511.999 62.2C511.999 70.7 505.279 95.17 505.279 98.75C505.699 102.95 505.279 101.05 506.139 103.58H485.519C484.999 101.89 484.689 100.12 484.789 98.3399H484.579C480.859 102.74 473.739 104.94 467.579 104.94C458.129 104.94 449.719 100.85 449.719 90.4499C449.719 76.0599 460.569 72.1799 476.399 71.0199C482.349 70.5999 491.789 71.45 491.789 64.72C491.789 60.94 488.399 59.99 485.219 59.99C480.969 59.99 477.999 61.4599 476.819 65.5599H457.059ZM477.469 92.65C484.579 92.65 487.449 87.51 488.719 79.41C485.319 81.1 481.389 81.52 477.559 81.83C474.059 82.14 470.759 83.93 470.759 87.93C470.759 91.71 474.049 92.65 477.459 92.65" fill="white"/>
<path d="M141.01 125.68H172.08C191.83 125.68 200.87 130.77 200.04 144.59C199.53 153.11 195.96 158.82 188.76 162.67C194.53 165.27 197.62 170.77 197.21 177.63C196.3 192.69 185.86 200.38 166.01 200.38H125.27L141.01 125.69V125.68ZM163.63 183.03C170.9 183.03 174.67 180.95 175.01 175.34C175.32 170.25 171.87 168.9 165.11 168.9H154.82L151.89 183.03H163.63ZM167.26 155.6C174.12 155.6 177.56 153.73 177.88 148.33C178.19 143.24 174.59 142.51 167.53 142.51H160.46L157.49 155.6H167.26Z" fill="white"/>
<path d="M214.48 125.68H235.68L230.13 151.55C235.16 146.25 240.73 143.65 247.18 143.65C258.51 143.65 264.92 150.4 264.17 161.73C264.05 163.5 263.92 165.47 263.48 167.44L256.94 200.37H235.53L241.26 171.8C241.74 169.31 242.05 167.75 242.08 167.23C242.38 162.66 240.25 160.37 236.09 160.37C230.48 160.37 227.35 163.7 225.82 171.07L219.73 200.37H198.74L214.48 125.68Z" fill="white"/>
<path d="M340.419 145.2H359.959L358.259 153.2C362.969 146.65 368.179 143.54 374.619 143.54C375.559 143.54 376.379 143.64 377.309 143.75L372.839 164.84C370.669 164.63 369.129 164.43 367.979 164.43C359.349 164.43 356.439 169 354.269 179.29L349.799 200.38H328.809L340.419 145.2Z" fill="white"/>
<path d="M455.96 201.1C445.57 201.1 440.18 196.32 440.74 188.32C440.85 186.76 441.19 184.79 441.79 182.19L447.03 157.47H439.24L441.96 145.21H449.75L453.87 125.68H474.55L470.32 145.21H478.74L476.13 157.47H467.71L463.12 178.77C462.98 179.29 462.94 179.81 462.91 180.33C462.7 183.34 464.39 184.49 468.65 184.49C469.48 184.49 470.31 184.49 471.26 184.39L467.87 200.28C463.05 200.9 459.08 201.11 455.97 201.11L455.96 201.1Z" fill="white"/>
<path d="M273.81 162.57C277.17 148.24 288.45 144.92 301.78 144.92C311.65 144.92 328.24 146.17 328.13 159.25C328.06 167.65 321.23 191.83 321.2 195.37C321.58 199.52 321.18 197.65 322.01 200.14H301.63C301.13 198.47 300.83 196.72 300.95 194.96H300.74C297.03 199.31 289.98 201.49 283.88 201.49C274.54 201.49 266.26 197.45 266.35 187.17C266.46 172.95 277.22 169.11 292.87 167.97C298.76 167.56 308.08 168.39 308.14 161.74C308.17 158 304.82 157.07 301.68 157.07C297.48 157.07 294.54 158.52 293.33 162.57H273.8H273.81ZM293.76 189.34C300.79 189.34 303.66 184.26 304.99 176.26C301.62 177.93 297.73 178.34 293.94 178.65C290.47 178.96 287.21 180.72 287.17 184.68C287.14 188.41 290.39 189.35 293.76 189.35" fill="white"/>
<path d="M380.549 162.57C384.039 148.24 395.339 144.92 408.679 144.92C418.549 144.92 435.129 146.17 434.909 159.25C434.769 167.65 427.729 191.83 427.669 195.37C428.019 199.52 427.629 197.65 428.439 200.14H408.059C407.579 198.47 407.289 196.72 407.429 194.96H407.219C403.469 199.31 396.399 201.49 390.309 201.49C380.969 201.49 372.729 197.45 372.899 187.17C373.139 172.95 383.929 169.11 399.589 167.97C405.479 167.56 414.799 168.39 414.909 161.74C414.969 158 411.629 157.07 408.489 157.07C404.289 157.07 401.329 158.52 400.099 162.57H380.569H380.549ZM400.269 189.34C407.299 189.34 410.219 184.26 411.609 176.26C408.219 177.93 404.329 178.34 400.539 178.65C397.069 178.96 393.789 180.72 393.719 184.68C393.659 188.41 396.899 189.35 400.269 189.35" fill="white"/>
<path d="M107.71 56.51C102.45 51.25 89.9603 47.28 80.9003 48.76C80.1503 48.89 78.0703 49.22 78.0703 49.22C78.0703 49.22 78.9203 49.92 79.8603 50.77C83.0003 53.62 98.0203 63.48 83.2403 77.24C99.6503 71.5 112.84 62.28 107.71 56.52V56.51Z" fill="#6E6F72"/>
<path d="M107.891 56.73C113.471 63.58 92.9606 77.32 60.2306 83.21C56.0906 83.98 48.1406 85.36 48.1406 85.36C48.1406 85.36 50.0006 87.03 52.0806 88.61C57.1206 92.46 63.5706 97.54 76.9706 102.46C84.3406 105.17 92.0506 107.34 92.0506 107.34C92.0506 107.34 91.6406 109.77 91.1406 112.74C89.9906 119.69 89.2506 125.31 88.7006 128.44C88.4906 129.65 87.8906 133.35 87.8906 133.35C87.8906 133.35 90.6606 130.13 92.2906 128.23C99.9106 119.33 126.431 78.96 107.891 56.73Z" fill="url(#paint0_linear_7929_681)"/>
<path d="M56.661 79.47C63.851 77.55 73.531 68.72 76.781 60.14C77.051 59.43 77.801 57.46 77.801 57.46C77.801 57.46 76.771 57.85 75.571 58.23C71.531 59.52 55.481 67.6 50.951 47.93C47.721 65.01 49.111 81.04 56.671 79.48L56.661 79.47Z" fill="#056A38"/>
<path d="M56.3702 79.51C47.6502 80.91 46.0002 56.29 57.2602 25.01C58.6602 21.04 61.4402 13.47 61.4402 13.47C61.4402 13.47 59.0602 14.25 56.6502 15.26C50.7902 17.7 43.1702 20.74 32.2102 29.88C26.1802 34.9 20.4402 40.49 20.4402 40.49C20.4402 40.49 18.5402 38.92 16.2102 37C10.7602 32.53 6.27023 29.08 3.83023 27.04C2.89023 26.25 -0.00976562 23.88 -0.00976562 23.88C-0.00976562 23.88 1.39023 27.89 2.23023 30.25C6.13023 41.3 27.8402 84.44 56.3702 79.51Z" fill="url(#paint1_linear_7929_681)"/>
<path d="M62.2994 23.8C60.3694 30.98 63.1694 43.78 68.9894 50.88C69.4694 51.47 70.7994 53.1 70.7994 53.1C70.7994 53.1 70.9794 52.02 71.2494 50.78C72.1494 46.63 73.1794 28.71 92.4894 34.62C79.3094 23.28 64.7294 16.47 62.2994 23.8Z" fill="#F15B2A"/>
<path d="M62.3984 23.52C65.5484 15.27 87.7084 26.15 109.168 51.54C111.908 54.74 117.068 60.93 117.068 60.93C117.068 60.93 117.578 58.48 117.918 55.89C118.728 49.6 119.908 41.48 117.478 27.42C116.138 19.69 114.168 11.93 114.168 11.93C114.168 11.93 116.478 11.07 119.298 10.02C125.898 7.53998 131.128 5.36998 134.118 4.28998C135.268 3.86998 138.778 2.53998 138.778 2.53998C138.778 2.53998 134.608 1.74998 132.138 1.28998C120.618 -0.86002 72.3884 -3.63002 62.3984 23.53V23.52Z" fill="url(#paint2_linear_7929_681)"/>
<path d="M152.29 234.83V235.35H144.1C144.05 230.76 141.39 228.41 137.42 228.41C133.71 228.41 130.79 229.98 128.55 233.05C126.31 236.18 125.21 239.83 125.21 244.06C125.21 249.75 128.19 253.66 133.67 253.66C137.95 253.66 141.6 250.43 142.44 246.25H150.63C147.5 255.95 142.23 260.55 133.56 260.55C123.17 260.55 117.02 254.55 117.02 244.06C117.02 232.43 124.54 221.52 137.38 221.52C146.31 221.52 152.31 226.58 152.31 234.82L152.29 234.83Z" fill="white"/>
<path d="M193.989 222.41L192.579 229.3H172.329L170.659 237.28H189.399L188.039 243.64H169.299L167.369 252.77H187.929L186.469 259.66H157.709L165.539 222.41H193.989Z" fill="white"/>
<path d="M215.909 222.41L218.779 249.38H218.879L233.229 222.41H244.659L236.779 259.66H229.109L235.899 230.03H235.799L220.039 259.66H213.779L210.179 230.03H210.079L204.499 259.66H196.719L204.599 222.41H215.929H215.909Z" fill="white"/>
<path d="M284.499 222.41L283.089 229.3H262.839L261.169 237.28H279.909L278.549 243.64H259.809L257.879 252.77H278.439L276.979 259.66H248.219L256.049 222.41H284.499Z" fill="white"/>
<path d="M303.549 222.41L313.669 248.91H313.769L319.089 222.41H326.599L318.719 259.66H310.529L300.299 233.52H300.199L294.879 259.66H287.209L295.089 222.41H303.549Z" fill="white"/>
<path d="M365.66 222.41L364.2 229.3H353.03L346.66 259.67H338.41L344.78 229.3H333.09L334.55 222.41H365.66Z" fill="white"/>
</g>
<defs>
<linearGradient id="paint0_linear_7929_681" x1="37.765" y1="118.481" x2="141.882" y2="77.5606" gradientUnits="userSpaceOnUse">
<stop stop-color="#444545"/>
<stop offset="0.25" stop-color="#8E9092"/>
<stop offset="0.35" stop-color="#989A9C"/>
<stop offset="0.53" stop-color="#B5B7B7"/>
<stop offset="0.75" stop-color="#E2E3E2"/>
<stop offset="1" stop-color="white"/>
</linearGradient>
<linearGradient id="paint1_linear_7929_681" x1="37.9532" y1="-12.5023" x2="21.3443" y2="98.0853" gradientUnits="userSpaceOnUse">
<stop stop-color="#103A23"/>
<stop offset="0.25" stop-color="#0C9047"/>
<stop offset="0.32" stop-color="#169446"/>
<stop offset="0.46" stop-color="#339F45"/>
<stop offset="0.62" stop-color="#62B142"/>
<stop offset="0.75" stop-color="#89C041"/>
<stop offset="1" stop-color="white"/>
</linearGradient>
<linearGradient id="paint2_linear_7929_681" x1="151.037" y1="53.5997" x2="63.5396" y2="-16.0881" gradientUnits="userSpaceOnUse">
<stop stop-color="#9D4024"/>
<stop offset="0.25" stop-color="#EC7E23"/>
<stop offset="0.36" stop-color="#EE881E"/>
<stop offset="0.55" stop-color="#F5A513"/>
<stop offset="0.75" stop-color="#FFCB05"/>
<stop offset="1" stop-color="white"/>
</linearGradient>
<clipPath id="clip0_7929_681">
<rect width="512" height="260.55" fill="white"/>
</clipPath>
</defs>
</svg>
