<?xml version="1.0" encoding="utf-8"?>
<!-- Generator: Adobe Illustrator 19.0.0, SVG Export Plug-In . SVG Version: 6.00 Build 0)  -->
<svg version="1.1" id="Layer_1" xmlns="http://www.w3.org/2000/svg" xmlns:xlink="http://www.w3.org/1999/xlink" x="0px" y="0px"
	 viewBox="0 0 500 500" style="enable-background:new 0 0 500 500;" xml:space="preserve">
<style type="text/css">
	.st0{fill:#3C78BB;}
</style>
<g id="_x23_3c78bbff">
	<path id="path6" class="st0" d="M273.5,229.4c2.9-1.8,6.3-2.6,9.7-2.7c3.9,0,7.9,0.5,11.4,2.2c-0.7,2.2-1.3,4.5-2,6.7
		c-2.8-1.5-6-2.2-9.2-2.2c-1.9,0-3.9,0.5-5.4,1.7c-1.4,1.1-2.1,3-1.7,4.8c0.2,1.5,1.3,2.7,2.6,3.5c2.9,1.9,6.3,2.7,9.3,4.3
		c2.3,1.2,4.5,2.7,6.1,4.8c1.9,2.6,2.5,6,2,9.2c-0.4,2.9-1.9,5.6-4.1,7.5c-2.1,1.8-4.8,2.9-7.5,3.5c-3.2,0.6-6.4,0.7-9.6,0.2
		c-2.8-0.4-5.5-1.2-8-2.5c0.5-2.3,1.2-4.6,1.8-6.9c3.3,1.9,7.1,2.8,10.9,2.9c2.3,0,4.7-0.5,6.4-2c1.4-1.2,1.9-3.2,1.7-5
		c-0.2-1.6-1.1-2.9-2.4-3.8c-2.5-1.9-5.7-2.7-8.6-4c-3-1.4-5.9-3.3-7.7-6.2c-1.5-2.4-1.8-5.4-1.3-8.2
		C268.7,234,270.8,231.2,273.5,229.4z"/>
	<path id="path8" class="st0" d="M65,227.3c14.6,0,29.2,0,43.8,0c0,4.4,0,8.9,0,13.3c-4.2,0-8.4,0-12.6,0c0,10.7,0,21.3,0,32
		c-6.1,0-12.2,0-18.2,0c0-10.6,0-21.3,0-31.9c-4.3,0-8.7,0-13,0C65,236.1,65,231.7,65,227.3z"/>
	<path id="path10" class="st0" d="M121.4,227.2c6.3,0,12.7,0,19,0c5.9,15.1,11.7,30.2,17.6,45.3c-5.9,0-11.8,0-17.8,0
		c-3.1-8.9-6.2-17.9-9.3-26.8c-0.2,0.2-0.3,0.5-0.3,0.7c-3,8.7-5.9,17.4-8.9,26.1c-5.8,0-11.7,0-17.5,0
		C109.9,257.4,115.6,242.3,121.4,227.2z"/>
	<path id="path12" class="st0" d="M153.8,227.2c14.6,0,29.2,0,43.8,0c0,4.4,0,8.9,0,13.3c-4.2,0-8.4,0-12.6,0c0,10.7,0,21.3,0,32
		c-6.1,0-12.2,0-18.2,0c-0.1-10.7,0-21.3,0-32c-4.3,0-8.7,0-13,0C153.8,236.1,153.8,231.7,153.8,227.2z"/>
	<path id="path14" class="st0" d="M210.2,227.2c6.3,0,12.7,0,19,0c5.9,15.1,11.8,30.2,17.6,45.3c-5.9,0-11.8,0-17.8,0
		c-3.1-9-6.2-17.9-9.3-26.9c-3.1,8.9-6.1,17.9-9.2,26.9c-5.8,0-11.7,0-17.5,0C198.7,257.4,204.4,242.3,210.2,227.2z"/>
	<path id="path16" class="st0" d="M297.3,227.5c11.4,0,22.8,0,34.1,0c0,2.3,0,4.6,0,6.9c-4.3,0-8.7,0-13,0c0,12.7,0,25.4,0,38.2
		c-2.8,0-5.5,0-8.3,0c0-12.7,0-25.4,0-38.1c-4.3,0-8.6,0-12.9,0C297.3,232.1,297.2,229.8,297.3,227.5z"/>
	<path id="path18" class="st0" d="M336.6,227.5c8.8,0,17.5,0,26.3,0c0,2.3,0,4.5,0,6.7c-6,0-12,0-18,0c-0.1,3.9,0,7.7,0,11.6
		c5.7,0,11.4,0,17,0c-0.1,2.2,0,4.5-0.1,6.7c-5.7-0.1-11.3,0-17,0c0,4.4,0,8.8,0,13.1c6.3,0,12.7,0,19,0c0,2.3,0,4.5,0,6.8
		c-9.1,0.1-18.2,0-27.3,0c0-12,0-24,0-35.9C336.6,233.6,336.5,230.5,336.6,227.5z"/>
	<path id="path20" class="st0" d="M372.3,227.5c8.8-0.1,17.5,0,26.3,0c0,2.3,0,4.5,0,6.8c-6,0-12,0-18,0c-0.1,3.9,0,7.7,0,11.6
		c5.7,0,11.3,0,17,0c0,2.2,0,4.5,0,6.7c-5.7,0.1-11.3,0-17,0c0,4.4,0,8.8,0,13.1c6.3,0,12.7,0,19,0c0,2.3,0,4.5,0,6.8
		c-9.1,0.1-18.2,0-27.3,0C372.3,257.5,372.4,242.5,372.3,227.5z"/>
	<path id="path22" class="st0" d="M408.2,227.5c2.8,0,5.5,0,8.3,0c0,12.7,0,25.4,0,38.1c6.2,0,12.4,0,18.5,0c0,2.3,0,4.6,0,6.9
		c-8.9,0-17.9,0-26.8,0C408.1,257.5,408.2,242.5,408.2,227.5z"/>
</g>
</svg>
