<svg version="1.2" xmlns="http://www.w3.org/2000/svg" viewBox="0 0 1556 1066" width="1556" height="1066">
	<title>UPL-svg</title>
	<defs>
		<linearGradient id="g1" x2="1" gradientUnits="userSpaceOnUse" gradientTransform="matrix(852.896,515.892,-504.636,834.288,80.918,305.2)">
			<stop offset="0" stop-color="#db72ab"/>
			<stop offset=".481" stop-color="#f8a780"/>
			<stop offset=".822" stop-color="#fdc25a"/>
			<stop offset=".998" stop-color="#f79a5c"/>
		</linearGradient>
		<linearGradient id="g2" x2="1" gradientUnits="userSpaceOnUse" gradientTransform="matrix(258.029,-325.739,97.266,77.048,685.354,1048.607)">
			<stop offset=".015" stop-color="#f27321"/>
			<stop offset=".515" stop-color="#fcbf10"/>
			<stop offset=".993" stop-color="#ffd898"/>
		</linearGradient>
		<linearGradient id="g3" x2="1" gradientUnits="userSpaceOnUse" gradientTransform="matrix(-530.529,570.194,-197.038,-183.331,547.124,12.849)">
			<stop offset=".028" stop-color="#f5906b"/>
			<stop offset=".264" stop-color="#f17895"/>
			<stop offset=".993" stop-color="#f3807c"/>
		</linearGradient>
		<linearGradient id="g4" x2="1" gradientUnits="userSpaceOnUse" gradientTransform="matrix(-604.78,752.889,-694.82,-558.135,841.324,205.95)">
			<stop offset=".003" stop-color="#ffe273" stop-opacity=".5"/>
			<stop offset=".412" stop-color="#fde241" stop-opacity="1"/>
			<stop offset=".75" stop-color="#f58a5d" stop-opacity="1"/>
			<stop offset="1" stop-color="#f3806f" stop-opacity="1"/>
		</linearGradient>
		<linearGradient id="g5" x2="1" gradientUnits="userSpaceOnUse" gradientTransform="matrix(77.397,566.546,-138.904,18.976,861.241,209.897)">
			<stop offset=".025" stop-color="#fdbe39"/>
			<stop offset=".488" stop-color="#ffdc78"/>
			<stop offset="1" stop-color="#ffcf56"/>
		</linearGradient>
		<linearGradient id="g6" x2="1" gradientUnits="userSpaceOnUse" gradientTransform="matrix(374.672,415.948,-93.829,84.518,59.603,663.94)">
			<stop offset="0" stop-color="#f16a2a"/>
			<stop offset=".473" stop-color="#f47e31"/>
			<stop offset="1" stop-color="#f89d31"/>
		</linearGradient>
		<linearGradient id="g7" x2="1" gradientUnits="userSpaceOnUse" gradientTransform="matrix(511.405,-27.275,6.169,115.663,274.238,167.939)">
			<stop offset=".023" stop-color="#f0572e"/>
			<stop offset=".995" stop-color="#f37d32"/>
		</linearGradient>
		<linearGradient id="g8" x2="1" gradientUnits="userSpaceOnUse" gradientTransform="matrix(376.153,-218.82,44.037,75.7,521.16,1030.735)">
			<stop offset="0" stop-color="#f48438"/>
			<stop offset=".484" stop-color="#f79b37"/>
			<stop offset=".992" stop-color="#fcb734"/>
		</linearGradient>
		<linearGradient id="g9" x2="1" gradientUnits="userSpaceOnUse" gradientTransform="matrix(133.824,-215.203,43.546,27.079,828.42,824.86)">
			<stop offset="0" stop-color="#f89e1c"/>
			<stop offset=".992" stop-color="#faab18"/>
		</linearGradient>
		<linearGradient id="g10" x2="1" gradientUnits="userSpaceOnUse" gradientTransform="matrix(588.795,543.865,-628.522,680.446,226.912,308.519)">
			<stop offset="0" stop-color="#f0592f"/>
			<stop offset=".398" stop-color="#f37b33"/>
			<stop offset=".994" stop-color="#fdbc18"/>
		</linearGradient>
		<linearGradient id="g11" x2="1" gradientUnits="userSpaceOnUse" gradientTransform="matrix(539.473,540.272,-593.617,592.739,250.397,284.396)">
			<stop offset="0" stop-color="#e93125"/>
			<stop offset=".425" stop-color="#f47f20"/>
			<stop offset=".697" stop-color="#f8a01b"/>
			<stop offset=".994" stop-color="#ffca36"/>
		</linearGradient>
		<linearGradient id="g12" x2="1" gradientUnits="userSpaceOnUse" gradientTransform="matrix(399.569,661.867,-681.717,411.553,356.13,224.505)">
			<stop offset=".023" stop-color="#ef5323"/>
			<stop offset=".475" stop-color="#f89e1c"/>
			<stop offset=".987" stop-color="#ffd451"/>
		</linearGradient>
		<linearGradient id="g13" x2="1" gradientUnits="userSpaceOnUse" gradientTransform="matrix(273.725,642.359,-644.146,274.486,409.026,238.06)">
			<stop offset=".022" stop-color="#f5861f"/>
			<stop offset=".371" stop-color="#fbae17"/>
			<stop offset=".658" stop-color="#fcb614"/>
			<stop offset=".996" stop-color="#ffcc39"/>
		</linearGradient>
		<clipPath clipPathUnits="userSpaceOnUse" id="cp1">
			<path d="m554.8 224.2c-84.3-26-167.3 19.6-219.3 41.2-52 21.6-110.3 67.8-117.9 219.9-4.1 82.2 10.2 199.9 39.7 279.3 46.9 43.3 96 77.4 148.2 106.5 12.5 7 24 12.8 34.8 17.8 42.4 0.9 90.3-3.9 140.7-12 49-7.9 111.3-20 157.5-35.8 25.6-8.7 48.6-18.1 69-27.7 20.2-23 38.5-47 57.1-72.5 38.4-52.7 60.3-94.1 73.7-140.8-14.8-41.5-36.5-85.4-94-160.4-102.6-133.7-205.2-189.5-289.5-215.5z"/>
		</clipPath>
		<radialGradient id="g14" cx="0" cy="0" r="1" gradientUnits="userSpaceOnUse" gradientTransform="matrix(80.848,65.679,-65.679,80.848,332.2,814.49)">
			<stop offset=".015" stop-color="#ffc730" stop-opacity="1"/>
			<stop offset="1" stop-color="#ffc733" stop-opacity="0"/>
		</radialGradient>
		<clipPath clipPathUnits="userSpaceOnUse" id="cp2">
			<path d="m554.8 224.2c-84.3-26-167.3 19.6-219.3 41.2-52 21.6-110.3 67.8-117.9 219.9-4.1 82.2 10.2 199.9 39.7 279.3 46.9 43.3 96 77.4 148.2 106.5 12.5 7 24 12.8 34.8 17.8 42.4 0.9 90.3-3.9 140.7-12 49-7.9 111.3-20 157.5-35.8 25.6-8.7 48.6-18.1 69-27.7 20.2-23 38.5-47 57.1-72.5 38.4-52.7 60.3-94.1 73.7-140.8-14.8-41.5-36.5-85.4-94-160.4-102.6-133.7-205.2-189.5-289.5-215.5z"/>
		</clipPath>
		<radialGradient id="g15" cx="0" cy="0" r="1" gradientUnits="userSpaceOnUse" gradientTransform="matrix(352.194,-133.22,133.22,352.194,375.04,360.955)">
			<stop offset="0" stop-color="#f16a22" stop-opacity="1"/>
			<stop offset=".236" stop-color="#f26e22" stop-opacity=".76"/>
			<stop offset=".451" stop-color="#f37920" stop-opacity=".55"/>
			<stop offset=".658" stop-color="#f68b1e" stop-opacity=".34"/>
			<stop offset=".86" stop-color="#faa51a" stop-opacity=".14"/>
			<stop offset="1" stop-color="#fdbc17" stop-opacity="0"/>
		</radialGradient>
		<linearGradient id="g16" x2="1" gradientUnits="userSpaceOnUse" gradientTransform="matrix(180.843,-132.015,20.627,28.256,726.38,894.648)">
			<stop offset="0" stop-color="#f9a31a"/>
			<stop offset=".992" stop-color="#faa919"/>
		</linearGradient>
		<linearGradient id="g17" x2="1" gradientUnits="userSpaceOnUse" gradientTransform="matrix(235.379,495.837,-446.078,211.758,449.118,333.916)">
			<stop offset=".023" stop-color="#fbaf17"/>
			<stop offset=".51" stop-color="#fcb614"/>
			<stop offset="1" stop-color="#ffc730"/>
		</linearGradient>
		<clipPath clipPathUnits="userSpaceOnUse" id="cp3">
			<path d="m624.2 293.2c-60.5-31.9-166.7 20.2-266.5 88.1-99.8 68-96.4 132.2-70.1 192.2 26.5 60.5 65.8 79.6 129.5 155 63.7 75.4 96.6 149.7 218.8 117.9 122.2-31.8 154-259.1 147.6-360-6.4-100.8-98.8-161.3-159.3-193.2z"/>
		</clipPath>
		<radialGradient id="g18" cx="0" cy="0" r="1" gradientUnits="userSpaceOnUse" gradientTransform="matrix(347.49,0,0,347.49,404.1,376.09)">
			<stop offset="0" stop-color="#f37c20" stop-opacity="1"/>
			<stop offset=".264" stop-color="#f4801f" stop-opacity=".74"/>
			<stop offset=".506" stop-color="#f58b1e" stop-opacity=".49"/>
			<stop offset=".739" stop-color="#f89d1b" stop-opacity=".26"/>
			<stop offset=".965" stop-color="#fcb718" stop-opacity=".04"/>
			<stop offset="1" stop-color="#fdbc17" stop-opacity="0"/>
		</radialGradient>
		<clipPath clipPathUnits="userSpaceOnUse" id="cp4">
			<path d="m624.2 293.2c-60.5-31.9-166.7 20.2-266.5 88.1-99.8 68-96.4 132.2-70.1 192.2 26.5 60.5 65.8 79.6 129.5 155 63.7 75.4 96.6 149.7 218.8 117.9 122.2-31.8 154-259.1 147.6-360-6.4-100.8-98.8-161.3-159.3-193.2z"/>
		</clipPath>
		<radialGradient id="g19" cx="0" cy="0" r="1" gradientUnits="userSpaceOnUse" gradientTransform="matrix(168.34,0,0,168.34,632.25,456.33)">
			<stop offset="0" stop-color="#fbb116" stop-opacity="1"/>
			<stop offset="1" stop-color="#fdbc17" stop-opacity="0"/>
		</radialGradient>
	</defs>
	<style>
		.s0 { opacity: .5;fill: url(#g1) } 
		.s1 { opacity: .5;fill: url(#g2) } 
		.s2 { opacity: .7;fill: #fab571 } 
		.s3 { opacity: .5;fill: #fde727 } 
		.s4 { opacity: .5;fill: url(#g3) } 
		.s5 { fill: #e74765 } 
		.s6 { fill: #e84978 } 
		.s7 { opacity: .7;fill: url(#g4) } 
		.s8 { opacity: .5;fill: #ffe0b0 } 
		.s9 { fill: #f6903f } 
		.s10 { opacity: .5;fill: url(#g5) } 
		.s11 { fill: #ffc93d } 
		.s12 { fill: #f05922 } 
		.s13 { fill: #ef818a } 
		.s14 { fill: url(#g6) } 
		.s15 { fill: url(#g7) } 
		.s16 { fill: #ec514e } 
		.s17 { fill: url(#g8) } 
		.s18 { fill: url(#g9) } 
		.s19 { fill: url(#g10) } 
		.s20 { fill: url(#g11) } 
		.s21 { fill: url(#g12) } 
		.s22 { fill: url(#g13) } 
		.s23 { fill: url(#g14) } 
		.s24 { fill: url(#g15) } 
		.s25 { fill: #f9a31a } 
		.s26 { fill: url(#g16) } 
		.s27 { fill: url(#g17) } 
		.s28 { fill: url(#g18) } 
		.s29 { fill: url(#g19) } 
		.s30 { fill: #ffffff } 
		.s31 { fill: #000000 } 
	</style>
	<g id="Layer">
		<path id="Layer" class="s0" d="m384 71c-106.4 18.8-208 68.5-283.9 202.9-28.1 49.7-91.8 181.3-77 328 7.7 76.4 42.5 135 69.9 179.2 32.7 52.7 76.3 101.7 109.8 135.8 67.1 68.1 161 137.3 247.3 146.4 37.5 4 81.2 2.1 125.6-12.2 61.8-19.9 126.4-61.6 188.8-120.8 67-63.6 92.3-100.9 123.8-135.3 49.6-54.3 78-83.1 119-126.1 61.2-64.1 59.2-174.2 10.2-261.7-55.4-99-118-146.2-118-146.2 0 0-105-108.7-253.4-162.8-92.2-33.7-191.3-39.7-262.1-27.2z"/>
		<path id="Layer" class="s1" d="m768.5 973.5c-25.8 19.9-87.6 54.7-164.1 66.9 7.5 0 15.4 0 23.6-0.2 25.7-0.6 53.3 2.3 83.7 1.3 84.4-2.5 108.7-52.6 156.7-118.4 29.2-40 48-79 63.7-127.2 6.4-19.6 12.7-41.2 18.2-67.3-4.5 4.7-9 9.5-13.7 14.5-38.9 101.3-99.6 177.5-168.1 230.4z"/>
		<path id="Layer" class="s2" d="m354.3 1002.6c-94.4-41.3-115-52.6-195.9-134q-1.2-1.2-2.4-2.4c25.8 49.4 50.1 97.3 100.9 120.8 14.7 6.8 31.2 12 48.4 16 24.8 5.7 51 8.7 75.5 9.8-9.5-3.3-18.4-6.7-26.5-10.2z"/>
		<path id="Layer" class="s3" d="m961.4 660.1c-1.4 7.3-2.9 14-4.4 19.7q-8.8 33.2-20.4 63.3c4.7-5 9.2-9.8 13.7-14.5 2.6-12.4 5.1-25.8 7.2-40.5 1.4-9.6 2.7-18.9 3.9-28z"/>
		<path id="Layer" class="s4" d="m646.3 98.1c-36.7-13.3-74.4-22.3-111-27.5-55.6-7.9-108.6-7.1-151.3 0.4-34.5 6.1-68.4 15.4-101.2 29.8-47.5 37.9-91.3 91.1-126.9 149.6-49.2 80.9-95 192.4-108 252.2-7.4 34.2-11.5 102.1 2.1 128.9 0.3 0.5 0.6 1.1 0.9 1.6-7.8-66.3 0.5-138.6 36.5-209.5 6.5-20.6 14.7-40 24.6-58 22.3-40.5 56.7-79.6 104.6-111.8 34.2-33.1 71.3-60.4 115.6-84.8 69.8-54.7 136.5-82.2 178.6-86.8 16-1.8 31.9-2 47.5-0.8 25.2 1.8 49.9 7.3 73.9 15.8 7.3 1.1 14.6 2.3 21.7 3.8-2.5-1-5-1.9-7.6-2.9z"/>
		<path id="Layer" class="s5" d="m558.3 81.3c-15.7-1.2-31.5-0.9-47.5 0.8-42.1 4.7-108.8 32.2-178.6 86.9 21.3-11.7 44.3-22.7 69.4-33.4 67.5-28.7 126.6-41.5 180.5-41.8 17.2-0.1 33.9 1.1 50.1 3.4-23.9-8.5-48.6-14-73.9-15.9z"/>
		<path id="Layer" class="s6" d="m216.5 253.8c-47.9 32.2-82.3 71.3-104.5 111.8-9.9 18-18.1 37.5-24.6 58 7.5-14.7 16.2-29.4 26.1-44 34.8-50.5 67.4-91.3 103-125.8z"/>
		<path id="Layer" class="s7" d="m968.2 444.5c-1.7-16-3.8-29.7-6.1-41.4-11.5-58.8-31.5-98-45.8-120.1-9.6-14.9-16.7-22-16.7-22 0 0-2.2-2.3-6.4-6.3-24.1-23.5-116-106.8-239.2-153.7-7.2-1.5-14.4-2.8-21.7-3.8-16.3-2.3-32.9-3.5-50.1-3.4-54 0.3-113 13.1-180.5 41.8-25.2 10.7-48.1 21.7-69.4 33.4-20 15.6-40.2 33.5-60.2 53.7-0.5 0.5-1 1.1-1.6 1.6-55.2 56.1-99.8 119-132.6 177.7-35.3 63.3-57.1 123.8-65 181.6-2 14.3-3.1 28.5-3.4 42.4-0.3 14.3 0.5 28.3 2.4 42.1 6.8 51.4 28 100.6 61 155.6 8.2 13.7 15.6 27.7 22.9 41.7 0.9 1.1 1.9 2.2 2.8 3.3 80.8 81.4 101.5 92.6 195.9 134 8.1 3.5 17 7 26.5 10.2 67.2 22.8 165.6 36.8 223.5 27.6 76.5-12.2 138.3-46.9 164.1-66.9 68.5-52.9 129.2-129.1 168-230.4 7.7-20.1 14.6-41.2 20.4-63.3 1.5-5.8 3-12.4 4.4-19.7 12.6-97.2 11.9-166.9 6.8-215.7z"/>
		<path id="Layer" class="s8" d="m802.2 165.2c-48.1-30.6-96.3-53.3-148.2-64.2 123.2 46.9 215.1 130.2 239.4 153.6 4.2 4 6.4 6.3 6.4 6.3 0 0-26.8-50.7-97.6-95.7z"/>
		<path id="Layer" class="s9" d="m492.1 1003.8c-17.3 3.8-35 6.5-52.9 8 55.6 18.6 97.8 28.1 165.1 28.5 37.2-15.8 75.2-39 112.8-68.8-24.1 11.7-50.1 21.7-78.2 30.2-53.3 16.3-101.2 15.3-146.8 2.1z"/>
		<path id="Layer" class="s10" d="m968.2 444.5c-1.7-16-3.8-29.7-6.1-41.4-11.5-58.8-31.5-98-45.8-120.1-9.6-14.9-16.7-22-16.7-22 0 0-2.2-2.3-6.4-6.3-10-9.4-31.2-27.3-58.4-39.2-13.7-6-30-11.2-50.5-16.5 2.9 2.9 5.7 5.9 8.6 8.9 73.9 78.7 138.2 161.8 157.5 286.5 5.1 32.9-2.5 72.4-12.1 105.8 19.1 53.7 14.7 63.7 4.2 98.8-4.3 14.5-17 33.2-39.4 53.5-5.8 16.7-12.2 32.4-19 47.2 1.4-1.6 2.8-3.2 4.3-4.7 18.3-20.1 33.8-36.7 48-51.8 7.7-20.1 14.6-41.2 20.4-63.3 1.5-5.8 3-12.4 4.4-19.7 12.8-97.2 12.1-166.9 7-215.7z"/>
		<path id="Layer" class="s11" d="m938.4 600.1c0 0.1 0 0.2 0 0.2-0.3 28.8-15.3 95-35.2 152 22.4-20.2 35.1-39 39.4-53.5 10.5-35 15-45-4.2-98.7z"/>
		<path id="Layer" class="s12" d="m272 222.7c20-20.2 40.2-38.1 60.2-53.7-44.4 24.4-81.4 51.7-115.6 84.8q23.5-15.9 51.6-29.4c1.2-0.6 2.5-1.2 3.8-1.7z"/>
		<path id="Layer" class="s13" d="m155.6 865.3c-7.3-14-14.7-28-22.9-41.7-33-55-54.1-104.2-61-155.6-1.8-13.8-2.6-27.8-2.4-42.1 0.3-14 1.4-28.1 3.4-42.4-6-56.3-0.6-111.2 14.7-159.9-35.9 70.8-44.2 143.1-36.5 209.5 8.5 72.4 36.1 137.6 67.9 185.8 12.1 18.4 24.8 34.3 37.3 47.2-0.2-0.2-0.3-0.5-0.5-0.8z"/>
		<path id="Layer" class="s14" d="m158.5 802.3c-21.4-28.8-38.6-59.1-52-90.2-18.2-42.2-29.3-85.8-33.8-128.6-2 14.3-3.1 28.5-3.4 42.4-0.3 14.3 0.5 28.3 2.4 42.1 6.8 51.4 28 100.6 61 155.6 8.2 13.7 15.6 27.7 22.9 41.7 0.9 1.1 1.9 2.2 2.8 3.3 80.8 81.4 101.5 92.6 195.9 134 8.1 3.5 17 7 26.5 10.2 21.6 1 41.8 0.5 58.4-0.9-62.7-21.1-175.9-68.4-280.7-209.6z"/>
		<path id="Layer" class="s15" d="m632.2 97.2c-16.3-2.3-32.9-3.5-50.1-3.4-54 0.3-113 13.1-180.5 41.8-25.2 10.7-48.1 21.7-69.4 33.4-20 15.6-40.2 33.5-60.2 53.7 83.3-38.8 202.4-64.7 282-63.3 37.3 0.7 89.9 9.9 149.2 21.7 12 2.4 23.1 4.7 33.5 6.8 18.1 3.8 33.9 7.4 47.8 10.9-45-45.7-96.7-81.9-152.3-101.6z"/>
		<path id="Layer" class="s16" d="m72.7 583.5c8-57.8 29.7-118.3 65-181.6 32.8-58.8 77.4-121.6 132.6-177.7 0.5-0.5 1-1.1 1.6-1.6-1.2 0.6-2.5 1.2-3.8 1.8-18.7 8.9-35.9 18.8-51.6 29.4-35.6 34.5-68.3 75.4-103 125.9-10 14.5-18.7 29.2-26.1 44-15.3 48.7-20.6 103.6-14.7 159.8z"/>
		<path id="Layer" class="s17" d="m903.2 752.4c-15.8 35.2-41.8 69.2-88.2 98.7-29.7 18.8-60.8 31.5-91 40.3-7.9 5.9-16.1 11.8-24.7 17.5-63.8 42.7-132.7 78.6-207.1 94.9 45.6 13.2 93.5 14.2 146.8-2.1 28.1-8.6 54.2-18.5 78.2-30.2 73.3-35.8 128.3-88.5 167-172 6.9-14.7 13.2-30.4 19-47.1z"/>
		<path id="Layer" class="s18" d="m938.4 600.3c0-0.1 0-0.2 0-0.2-13.4 46.7-35.3 88.1-73.7 140.8-18.5 25.5-36.9 49.6-57 72.5 42.2-20 73.6-41.2 95.6-61 19.8-57.1 34.8-123.2 35.1-152.1z"/>
		<path id="Layer" class="s19" d="m439.2 1011.9c17.9-1.5 35.6-4.2 52.9-8 74.4-16.3 143.3-52.2 207.1-94.9 8.6-5.8 16.9-11.6 24.7-17.5 32.8-24.6 59.5-50.4 83.7-77.9 15.1-17.2 29.2-35.1 43.2-53.7 4.6-6.2 9.3-12.5 13.9-18.8 38.4-52.7 60.3-94.1 73.7-140.8 9.6-33.5 17.2-72.9 12.1-105.8-19.3-124.8-83.5-207.9-157.4-286.7-2.8-3-5.7-6-8.6-8.9-45-45.8-96.7-82-152.3-101.8-16.3-2.3-32.9-3.5-50.1-3.4-54 0.3-113 13.1-180.5 41.8-25.2 10.7-48.1 21.7-69.4 33.4-20 15.6-40.2 33.5-60.2 53.7-0.5 0.5-1 1.1-1.6 1.6-55.2 56.1-99.8 118.9-132.6 177.7-35.3 63.3-57.1 123.8-65 181.6-2 14.3-3.1 28.5-3.4 42.4-0.3 14.3 0.5 28.3 2.4 42.1 6.8 51.4 28 100.6 61 155.6 8.2 13.7 15.6 27.7 22.9 41.7 0.9 1.1 1.9 2.2 2.8 3.3 80.8 81.4 101.5 92.6 195.9 134 8.1 3.5 17 7 26.5 10.2 21.5 1 41.7 0.5 58.3-0.9z"/>
		<path id="Layer" class="s20" d="m950.6 494.3c-19.4-124.6-83.6-207.7-157.5-286.5-2.8-3-5.7-6-8.6-8.9-13.9-3.6-29.7-7.1-47.8-10.9-10.4-2.2-21.5-4.4-33.5-6.8-59.4-11.9-111.9-21.1-149.2-21.7-79.6-1.4-198.7 24.5-282 63.3-0.5 0.5-1 1.1-1.6 1.6-55.2 56.1-99.8 118.9-132.6 177.7-35.3 63.3-57.1 123.8-65 181.6 4.5 42.8 15.6 86.3 33.8 128.6 13.4 31 30.6 61.4 52 90.2 104.8 141.2 217.9 188.5 280.7 209.6 17.9-1.5 35.6-4.2 52.9-8 74.4-16.3 143.3-52.2 207.1-94.9 8.6-5.8 16.9-11.6 24.7-17.5 32.8-24.6 59.5-50.4 83.7-77.9 15.1-17.2 29.2-35.1 43.2-53.7 4.6-6.2 9.3-12.5 13.9-18.8 38.4-52.7 60.3-94.1 73.7-140.8 9.5-33.8 17.2-73.3 12.1-106.2z"/>
		<path id="Layer" class="s21" d="m909.1 389.8c-4-11.5-8.5-22.2-13.3-32.3-0.5-1-1-1.9-1.5-2.8-14.3-26.7-29.5-48.9-45.4-67.7-14.8-17.5-30-32-45.6-44.1-38-29.7-77.7-45.6-116-58.1-82-26.9-189.5-21.3-303.5 26.5-108 45.2-169.5 100.3-201.9 149.4-32.4 49.1-44.9 94-64.5 144.3-12.8 32.9-26.6 59.8 42.3 151.1 31.7 42 64.1 77.7 97.6 108.6 46.9 43.3 96 77.4 148.2 106.5 12.5 7 24 12.8 34.8 17.8 66.8 30.7 104.4 26.5 149.6 23.2 33.2-2.4 82.1-5.7 134-20.8 32.8-24.6 59.5-50.4 83.7-77.9 20.2-23 38.5-47 57.1-72.5 38.4-52.7 60.3-94.1 73.7-140.8 0.1-62.5-10.5-153.8-29.3-210.4z"/>
		<path id="Layer" class="s22" d="m554.8 224.2c-84.3-26-167.3 19.6-219.3 41.2-52 21.6-110.3 67.8-117.9 219.9-4.1 82.2 10.2 199.9 39.7 279.3 46.9 43.3 96 77.4 148.2 106.5 12.5 7 24 12.8 34.8 17.8 42.4 0.9 90.3-3.9 140.7-12 49-7.9 111.3-20 157.5-35.8 25.6-8.7 48.6-18.1 69-27.7 20.2-23 38.5-47 57.1-72.5 38.4-52.7 60.3-94.1 73.7-140.8-14.8-41.5-36.5-85.4-94-160.4-102.6-133.7-205.2-189.5-289.5-215.5z"/>
		<g id="Layer">
			<g id="Layer">
				<g id="Layer">
					<g id="Clip-Path" clip-path="url(#cp1)">
						<path id="Layer" class="s23" d="m413 880.2c41.9-51.5 39.6-122.7-5-159-44.7-36.3-114.8-23.9-156.6 27.6-41.8 51.5-39.6 122.7 5 159 44.6 36.3 114.8 23.9 156.6-27.6z"/>
					</g>
				</g>
			</g>
		</g>
		<g id="Layer">
			<g id="Layer">
				<g id="Layer">
					<g id="Clip-Path" clip-path="url(#cp2)">
						<path id="Layer" class="s24" d="m727.2 227.7c-69.8-184.7-284.2-274.8-478.7-201.2-194.5 73.6-295.5 283-225.7 467.7 69.8 184.7 284.2 274.8 478.7 201.2 194.5-73.6 295.6-282.9 225.7-467.7z"/>
					</g>
				</g>
			</g>
		</g>
		<path id="Layer" class="s25" d="m257.4 764.6c0.5 1.3 1 2.7 1.5 4 25 65.1 61.1 96.7 100.8 109 23.3 7.2 50.7 10.7 80.8 11.3-10.8-5-22.4-10.9-34.8-17.8-52.4-29.1-101.4-63.2-148.3-106.5z"/>
		<path id="Layer" class="s26" d="m724 891.4c30.2-8.7 61.3-21.5 91-40.3 46.4-29.5 72.5-63.5 88.2-98.7-22 19.8-53.4 41.1-95.6 61-24.1 27.5-50.8 53.4-83.6 78z"/>
		<path id="Layer" class="s27" d="m624.2 293.2c-60.5-31.9-166.7 20.2-266.5 88.1-99.8 68-96.4 132.2-70.1 192.2 26.5 60.5 65.8 79.6 129.5 155 63.7 75.4 96.6 149.7 218.8 117.9 122.2-31.8 154-259.1 147.6-360-6.4-100.8-98.8-161.3-159.3-193.2z"/>
		<g id="Layer">
			<g id="Layer">
				<g id="Layer">
					<g id="Clip-Path" clip-path="url(#cp3)">
						<path id="Layer" class="s28" d="m404.1 728.6c-192.2 0-347.5-157.6-347.5-352.5 0-194.9 155.3-352.5 347.5-352.5 192.2 0 347.5 157.6 347.5 352.5 0 194.9-155.3 352.5-347.5 352.5z"/>
					</g>
				</g>
			</g>
		</g>
		<g id="Layer">
			<g id="Layer">
				<g id="Layer">
					<g id="Clip-Path" clip-path="url(#cp4)">
						<path id="Layer" class="s29" d="m632.2 624.6c-93.1 0-168.3-75.2-168.3-168.3 0-93.1 75.2-168.3 168.3-168.3 93.1 0 168.3 75.2 168.3 168.3 0 93.1-75.2 168.3-168.3 168.3z"/>
					</g>
				</g>
			</g>
		</g>
	</g>
	<g id="Layer">
		<g id="Layer">
			<path id="Layer" class="s30" d="m1555.1 402.5h-72.8c-43.8 0-96.1-16-96.1-92.5v-220.7h42.5v2l-1.2 219.9c0 36.4 16.6 52.6 53.7 52.6h74v38.7z"/>
		</g>
		<g id="Layer">
			<path id="Layer" fill-rule="evenodd" class="s30" d="m1171.4 402.5h-42.4v-313.2h101.5c71.1 0 111.9 40.8 111.9 111.9 0 66.9-45 111.9-111.9 111.9h-59.1zm0-126.7h54.3c27.2 0 72.9-9.7 72.9-74.6 0-49.5-24.5-74.5-72.9-74.5h-54.3z"/>
		</g>
		<g id="Layer">
			<path id="Layer" class="s30" d="m966.2 407.4c-69.1 0-112-39.8-112-103.9v-214.2h42.5v214.4c0 53 37.8 64.2 69.6 64.2 31.8 0 69.6-11.1 69.6-64.2v-214.4h42.5v214.1c-0.1 64.2-43 104-112.2 104z"/>
		</g>
	</g>
	<path id="Layer" fill-rule="evenodd" class="s30" d="m1102.8 506.4c0 10.6-1.7 19.9-4.9 27.9-3.3 8.1-8.2 14.3-14.7 18.8-6.5 4.5-14.6 6.8-24.4 6.8-9.8 0-18-2.3-24.5-6.8-6.6-4.5-11.4-10.8-14.7-18.9-3.2-8.1-4.9-17.4-4.9-28 0-10.6 1.7-19.8 5-27.8 3.3-8 8.3-14.2 14.9-18.7 6.6-4.5 14.8-6.8 24.6-6.8 9.4 0 17.4 2.2 23.9 6.5 6.5 4.3 11.4 10.5 14.8 18.4 3.3 8 4.9 17.5 4.9 28.6zm-79.2 0c0 9.2 1.3 17.3 3.8 24.2 2.5 6.9 6.4 12.3 11.6 16.2 5.2 3.9 11.9 5.8 19.9 5.8 8 0 14.6-1.9 19.8-5.8 5.1-3.8 8.9-9.2 11.4-16.1 2.5-6.9 3.7-15 3.7-24.3 0-14.4-2.9-25.6-8.7-33.7-5.8-8.1-14.4-12.1-26-12.1-8.1 0-14.7 1.9-20 5.8-5.3 3.8-9.2 9.2-11.8 16.1-2.5 6.8-3.7 14.8-3.7 23.9z"/>
	<path id="Layer" fill-rule="evenodd" class="s30" d="m1149.1 479.6c9.3 0 16.6 3.3 21.8 10 5.2 6.6 7.9 16.6 7.9 29.8 0 13.2-2.7 23.2-8.2 30.2-5.4 6.9-12.8 10.4-22.1 10.4-6.4 0-11.5-1.5-15.4-4.4-3.9-2.9-6.7-6.4-8.6-10.5h-0.6c0.1 2.5 0.2 5.2 0.4 8 0.2 2.8 0.2 5.5 0.2 8v31.7h-8.3v-111.7h6.6l1.3 14.5h0.4c1.8-4.3 4.8-8 8.7-11.2q6-4.8 15.9-4.8zm-1.2 7.3q-11.8 0-17.7 8.1c-3.8 5.4-5.8 13.2-5.8 23.4v1.5c0 11.1 1.8 19.3 5.5 24.8 3.7 5.5 9.5 8.2 17.3 8.2 7.4 0 13-3 16.9-8.9 3.9-5.9 5.8-14.2 5.8-24.7 0-10.4-1.8-18.4-5.5-23.9-3.6-5.7-9.1-8.5-16.5-8.5z"/>
	<path id="Layer" fill-rule="evenodd" class="s30" d="m1221.8 479.6c6.2 0 11.4 1.5 15.7 4.6 4.3 3.1 7.5 7.2 9.6 12.6 2.1 5.4 3.2 11.4 3.2 18.3v5.8h-51.8c0.1 10.2 2.3 18 6.8 23.5 4.4 5.5 10.7 8.2 19 8.2 4.6 0 8.5-0.4 11.9-1.2 3.4-0.8 7.1-2.1 11.1-4.1v7.6c-3.6 1.7-7.2 3-10.8 3.8-3.6 0.8-7.8 1.2-12.5 1.2-11 0-19.4-3.5-25.2-10.6-5.8-7.1-8.8-16.7-8.8-29 0-7.9 1.3-14.9 3.8-21 2.5-6.1 6.1-11 10.8-14.5 4.7-3.4 10.4-5.2 17.2-5.2zm0 7c-6.6 0-11.9 2.4-16 7.1-4.1 4.7-6.4 11.5-7.1 20.2h43.1c-0.1-8.1-1.8-14.7-4.9-19.8-3.3-5-8.3-7.5-15.1-7.5z"/>
	<path id="Layer" class="s30" d="m1295.7 479.6c8.3 0 14.7 2.3 19.1 6.8 4.4 4.6 6.6 11.7 6.6 21.4v50.6h-8.2v-50c0-7.4-1.6-12.8-4.7-16.3-3.2-3.5-7.7-5.2-13.7-5.2q-23.7 0-23.7 29.4v42.2h-8.2v-77.4h6.6l1.3 13.4h0.6c1.9-4.3 5-7.8 9.1-10.6 4-2.9 9.1-4.3 15.2-4.3z"/>
	<path id="Layer" fill-rule="evenodd" class="s30" d="m1406.3 558.5l-12.8-35.8h-40.5l-12.8 35.8h-8.7l38.1-104.1h8.2l37.2 104.1zm-15.5-43.4l-12.8-37.5c-0.4-1.4-1.1-3.5-2-6.4-1-2.9-1.8-5.5-2.5-7.7-0.7 2.5-1.4 5.1-2.3 7.6-0.8 2.6-1.6 4.8-2.3 6.6l-13.1 37.4z"/>
	<path id="Layer" fill-rule="evenodd" class="s30" d="m1449.3 479.6c5.6 0 10.3 1.2 14.1 3.5 3.8 2.3 6.8 5.6 9.2 9.8h0.6l1.2-11.8h6.7v79.9c0 10.2-2.5 18.1-7.4 23.8-4.9 5.7-13 8.6-24.3 8.6-5.4 0-10.3-0.5-14.5-1.5-4.2-1-8-2.2-11.4-3.8v-8c3.4 1.8 7.3 3.3 11.9 4.4 4.5 1.1 9.3 1.7 14.5 1.7 7.8 0 13.7-2.2 17.5-6.7 3.8-4.5 5.7-10.5 5.7-18.2 0-2 0-8.6 0-10.6q0-3 0.3-6h-0.4c-4.3 10.1-12.4 15.1-24.3 15.1q-13.9 0-21.9-10.2c-5.3-6.8-7.9-16.6-7.9-29.4 0-12.5 2.6-22.4 7.9-29.8 5-7.1 12.6-10.8 22.5-10.8zm1.2 7.3c-7.8 0-13.6 2.9-17.5 8.8-3.9 5.9-5.8 14.1-5.8 24.8 0 10.6 1.9 18.6 5.8 24.1 3.8 5.5 9.4 8.3 16.7 8.3 5.9 0 10.6-1.3 14-3.9q5.1-3.9 7.2-10.8 2.1-6.9 2.1-15.6v-5q0-14.8-5.1-22.8c-3.5-5.2-9.3-7.9-17.4-7.9z"/>
	<path id="®" class="s31" aria-label="®"  d="m1500.4 492.5q0 1.2-0.6 2.3-0.6 1.1-1.6 1.7-1.1 0.6-2.3 0.6-1.3 0-2.4-0.6-1-0.7-1.6-1.7-0.6-1.1-0.6-2.3 0-1.2 0.6-2.3 0.6-1 1.7-1.7 1-0.6 2.3-0.6 1.2 0 2.3 0.6 1 0.7 1.6 1.7 0.6 1.1 0.6 2.3zm-0.5 0q0-1.1-0.6-2-0.5-0.9-1.4-1.4-1-0.6-2-0.6-1.1 0-2 0.6-1 0.5-1.5 1.4-0.5 1-0.5 2 0 1.1 0.5 2 0.5 0.9 1.5 1.5 0.9 0.5 2 0.5 1 0 2-0.5 0.9-0.6 1.4-1.5 0.6-0.9 0.6-2zm-1.8 2.7h-1l-1.2-2.2h-1.1v2.2h-0.8v-5.3h2q0.9 0 1.4 0.4 0.5 0.4 0.5 1.1 0 0.6-0.4 1-0.3 0.4-0.8 0.5zm-1.1-3.7q0-0.5-0.3-0.7-0.3-0.2-0.8-0.2h-1.1v1.9h1.2q0.5 0 0.8-0.3 0.2-0.2 0.2-0.7z"/>
</svg>
